HIERARCHY
ROOT Hips
{
	OFFSET 0.000000 0.000000 0.000000
	CHANNELS 6 Xposition Yposition Zposition Zrotation Yrotation Xrotation 
	JOINT LHipJoint
	{
		OFFSET 0.000000 0.000000 0.000000
		CHANNELS 3 Zrotation Yrotation Xrotation
		JOINT LeftUpLeg
		{
			OFFSET 1.363060 -1.794630 0.839290
			CHANNELS 3 Zrotation Yrotation Xrotation
			JOINT LeftLeg
			{
				OFFSET 2.448110 -6.726130 0.000000
				CHANNELS 3 Zrotation Yrotation Xrotation
				JOINT LeftFoot
				{
					OFFSET 2.562200 -7.039590 0.000000
					CHANNELS 3 Zrotation Yrotation Xrotation
					JOINT LeftToeBase
					{
						OFFSET 0.157640 -0.433110 2.322550
						CHANNELS 3 Zrotation Yrotation Xrotation
						End Site
						{
							OFFSET 0.000000 0.000000 0.000000
						}
					}
				}
			}
		}
	}
	JOINT RHipJoint
	{
		OFFSET 0.000000 0.000000 0.000000
		CHANNELS 3 Zrotation Yrotation Xrotation
		JOINT RightUpLeg
		{
			OFFSET -1.305520 -1.794630 0.839290
			CHANNELS 3 Zrotation Yrotation Xrotation
			JOINT RightLeg
			{
				OFFSET -2.542530 -6.985550 0.000000
				CHANNELS 3 Zrotation Yrotation Xrotation
				JOINT RightFoot
				{
					OFFSET -2.568260 -7.056230 0.000000
					CHANNELS 3 Zrotation Yrotation Xrotation
					JOINT RightToeBase
					{
						OFFSET -0.164730 -0.452590 2.363150
						CHANNELS 3 Zrotation Yrotation Xrotation
						End Site
						{
							OFFSET 0.000000 0.000000 0.000000
						}
					}
				}
			}
		}
	}
	JOINT LowerBack
	{
		OFFSET 0.000000 0.000000 0.000000
		CHANNELS 3 Zrotation Yrotation Xrotation
		JOINT Spine
		{
			OFFSET 0.028270 2.035590 -0.193380
			CHANNELS 3 Zrotation Yrotation Xrotation
			JOINT Spine1
			{
				OFFSET 0.056720 2.048850 -0.042750
				CHANNELS 3 Zrotation Yrotation Xrotation
				JOINT Neck
				{
					OFFSET 0.000000 0.000000 0.000000
					CHANNELS 3 Zrotation Yrotation Xrotation
					JOINT Neck1
					{
						OFFSET -0.054170 1.746240 0.172020
						CHANNELS 3 Zrotation Yrotation Xrotation
						JOINT Head
						{
							OFFSET 0.104070 1.761360 -0.123970
							CHANNELS 3 Zrotation Yrotation Xrotation
							End Site
							{
								OFFSET 0.000000 0.000000 0.000000
							}
						}
					}
				}
				JOINT LeftShoulder
				{
					OFFSET 0.000000 0.000000 0.000000
					CHANNELS 3 Zrotation Yrotation Xrotation
					JOINT LeftArm
					{
						OFFSET 3.362410 1.200890 -0.311210
						CHANNELS 3 Zrotation Yrotation Xrotation
						JOINT LeftForeArm
						{
							OFFSET 4.983000 -0.000000 -0.000000
							CHANNELS 3 Zrotation Yrotation Xrotation
							JOINT LeftHand
							{
								OFFSET 3.483560 -0.000000 -0.000000
								CHANNELS 3 Zrotation Yrotation Xrotation
								JOINT LeftFingerBase
								{
									OFFSET 0.000000 0.000000 0.000000
									CHANNELS 3 Zrotation Yrotation Xrotation
									JOINT LeftHandIndex1
									{
										OFFSET 0.715260 -0.000000 -0.000000
										CHANNELS 3 Zrotation Yrotation Xrotation
										End Site
										{
											OFFSET 0.000000 0.000000 0.000000
										}
									}
								}
								JOINT LThumb
								{
									OFFSET 0.000000 0.000000 0.000000
									CHANNELS 3 Zrotation Yrotation Xrotation
									End Site
									{
										OFFSET 0.000000 0.000000 0.000000
									}
								}
							}
						}
					}
				}
				JOINT RightShoulder
				{
					OFFSET 0.000000 0.000000 0.000000
					CHANNELS 3 Zrotation Yrotation Xrotation
					JOINT RightArm
					{
						OFFSET -3.136600 1.374050 -0.404650
						CHANNELS 3 Zrotation Yrotation Xrotation
						JOINT RightForeArm
						{
							OFFSET -5.241900 -0.000000 -0.000000
							CHANNELS 3 Zrotation Yrotation Xrotation
							JOINT RightHand
							{
								OFFSET -3.444170 -0.000000 -0.000000
								CHANNELS 3 Zrotation Yrotation Xrotation
								JOINT RightFingerBase
								{
									OFFSET 0.000000 0.000000 0.000000
									CHANNELS 3 Zrotation Yrotation Xrotation
									JOINT RightHandIndex1
									{
										OFFSET -0.622530 -0.000000 -0.000000
										CHANNELS 3 Zrotation Yrotation Xrotation
										End Site
										{
											OFFSET 0.000000 0.000000 0.000000
										}
									}
								}
								JOINT RThumb
								{
									OFFSET 0.000000 0.000000 0.000000
									CHANNELS 3 Zrotation Yrotation Xrotation
									End Site
									{
										OFFSET 0.000000 0.000000 0.000000
									}
								}
							}
						}
					}
				}
			}
		}
	}
}
MOTION
Frames: 9
Frame Time: 0.033333
-0.075803 17.584558 -0.075803 -3.918972 -9.276129 5.693853 -2.855204 19.706605 3.982886 -14.475792 -5.600853 -16.393553 -7.094024 -8.580242 -26.231085 1.027326 15.229758 31.158901 0.000000 0.000000 0.000000 -1.376711 -23.914575 -11.998672 43.312650 11.001235 -0.961792 -13.966896 3.255271 31.950928 -3.040940 19.236203 -29.173075 0.000000 0.000000 0.000000 0.364672 1.652716 14.858628 2.417722 1.939559 -2.897257 3.410206 2.288235 -7.154744 -5.716621 0.655125 1.743341 4.172742 -0.134605 3.990999 0.000000 0.000000 0.000000 2.424949 12.639190 11.295211 -69.347577 -3.432249 16.367503 -7.671705 -84.456093 0.027442 4.787219 -16.771569 -0.000011 4.933004 -16.740092 0.000000 0.000000 0.000000 0.000000 0.000000 0.000000 0.000000 7.505608 -16.184667 1.494341 51.350963 10.948091 1.322399 19.869062 12.561623 0.029517 0.582416 4.261769 0.014704 0.580992 4.262290 0.000000 0.000000 0.000000 0.000000 0.000000 0.000000 0.000000 
-0.065524 17.615378 0.083428 -3.749766 -9.138345 5.871749 -2.473651 19.766299 3.726809 -15.226538 -5.651319 -16.028006 -7.082639 -8.263822 -25.073614 0.734438 14.157871 29.057236 0.000000 0.000000 0.000000 -1.655750 -23.648534 -11.354101 42.366903 11.218117 -1.482114 -12.791526 2.823696 32.032114 -3.039182 19.364886 -29.829390 0.000000 0.000000 0.000000 0.425907 1.624394 14.526188 2.537001 1.885256 -2.824682 3.298327 2.246261 -7.508180 -6.001501 0.696473 2.134771 4.250685 -0.129703 3.919632 0.000000 0.000000 0.000000 1.897783 12.711350 11.425053 -69.132057 -3.141061 16.941661 -8.560817 -83.923812 0.069598 4.455360 -16.706022 0.021855 4.591474 -16.678708 0.000000 0.000000 0.000000 0.000000 0.000000 0.000000 0.000000 8.193481 -16.370654 1.293844 50.549759 10.750904 1.136221 19.157437 11.428216 0.027186 0.576544 4.097608 0.013546 0.575275 4.098080 0.000000 0.000000 0.000000 0.000000 0.000000 0.000000 0.000000 
-0.052996 17.648017 0.242067 -3.573487 -8.979846 6.055952 -2.128642 19.814847 3.450779 -15.949542 -5.710617 -15.700199 -7.074802 -7.914517 -23.828378 0.476203 13.080971 26.939287 0.000000 0.000000 0.000000 -1.893000 -23.340211 -10.683917 41.337416 11.451552 -2.058299 -11.594479 2.381109 32.077092 -3.019651 19.467748 -30.436190 0.000000 0.000000 0.000000 0.484850 1.587229 14.180963 2.669059 1.824970 -2.752567 3.179796 2.195562 -7.859832 -6.303441 0.740431 2.536565 4.337195 -0.124395 3.843109 0.000000 0.000000 0.000000 1.364037 12.784756 11.558933 -68.904946 -2.857218 17.491394 -9.451628 -83.376449 0.110558 4.126275 -16.627005 0.043109 4.252776 -16.603613 0.000000 0.000000 0.000000 0.000000 0.000000 0.000000 0.000000 8.894095 -16.555280 1.097211 49.712752 10.538274 0.970675 18.475060 10.380187 0.025146 0.572211 3.942960 0.012532 0.571082 3.943389 0.000000 0.000000 0.000000 0.000000 0.000000 0.000000 0.000000 
-0.038270 17.682029 0.399713 -3.391081 -8.802711 6.245052 -1.823045 19.855362 3.158851 -16.640043 -5.780034 -15.414570 -7.070712 -7.532864 -22.502349 0.252022 12.007762 24.820769 0.000000 0.000000 0.000000 -2.087464 -22.994799 -9.991162 40.228962 11.694496 -2.683490 -10.379920 1.931711 32.079844 -2.983846 19.547713 -30.996058 0.000000 0.000000 0.000000 0.541839 1.541497 13.824195 2.814570 1.759140 -2.681252 3.053513 2.136647 -8.208855 -6.622711 0.787273 2.949108 4.432950 -0.118635 3.761044 0.000000 0.000000 0.000000 0.824221 12.859970 11.696963 -68.666367 -2.580865 18.015815 -10.343662 -82.813982 0.150276 3.800497 -16.534601 0.063727 3.917480 -16.514886 0.000000 0.000000 0.000000 0.000000 0.000000 0.000000 0.000000 9.606226 -16.738192 0.904127 48.841281 10.311113 0.824198 17.823611 9.412929 0.023355 0.569233 3.797127 0.011641 0.568229 3.797516 0.000000 0.000000 0.000000 0.000000 0.000000 0.000000 0.000000 
-0.021910 17.717004 0.556004 -3.203386 -8.609034 6.437864 -1.559198 19.890046 2.855282 -17.293946 -5.861012 -15.174670 -7.065154 -7.120431 -21.104143 0.060421 10.945779 22.717698 0.000000 0.000000 0.000000 -2.238390 -22.616667 -9.278865 39.044982 11.940745 -3.351372 -9.145118 1.477122 32.036838 -2.932601 19.606036 -31.511637 0.000000 0.000000 0.000000 0.597115 1.487541 13.456895 2.974212 1.688194 -2.611121 2.918385 2.070005 -8.554397 -6.959615 0.837294 3.372817 4.538645 -0.112373 3.673050 0.000000 0.000000 0.000000 0.278852 12.937486 11.839233 -68.416445 -2.312105 18.514080 -11.236460 -82.236349 0.188704 3.478548 -16.428940 0.083682 3.586143 -16.412651 0.000000 0.000000 0.000000 0.000000 0.000000 0.000000 0.000000 10.328702 -16.918987 0.714236 47.936908 10.070370 0.695384 17.204088 8.521615 0.021780 0.567414 3.659416 0.010859 0.566520 3.659771 0.000000 0.000000 0.000000 0.000000 0.000000 0.000000 0.000000 
-0.001520 17.753852 0.713118 -3.021937 -8.393413 6.677964 -1.317886 19.964304 2.521283 -17.940335 -6.000288 -15.058180 -7.094513 -6.627664 -19.490752 -0.117629 9.842670 20.529923 0.000000 0.000000 0.000000 -2.247572 -22.209161 -8.653154 37.834130 12.241150 -4.088306 -8.123289 1.014834 32.178890 -2.862564 19.599600 -31.950797 0.000000 0.000000 0.000000 0.511835 1.343659 13.243654 2.555764 1.514077 -2.465264 2.968863 1.894187 -8.102100 -6.330889 0.737231 2.688289 4.316384 -0.124013 3.814321 0.000000 0.000000 0.000000 1.013857 12.810060 11.582871 -68.701591 -2.839373 17.719171 -9.642799 -83.178165 0.123435 4.046328 -16.616173 0.049718 4.170436 -16.593715 0.000000 0.000000 0.000000 0.000000 0.000000 0.000000 0.000000 8.967769 -16.806616 1.051514 49.618877 10.445604 0.995823 18.582396 10.514763 0.026143 0.582515 3.967302 0.013029 0.581373 3.967744 0.000000 0.000000 0.000000 0.000000 0.000000 0.000000 0.000000 
0.020566 17.790875 0.868807 -2.839444 -8.170510 6.920148 -1.120873 20.044667 2.187002 -18.543111 -6.159145 -14.999628 -7.116204 -6.102162 -17.808110 -0.264105 8.762150 18.377123 0.000000 0.000000 0.000000 -2.219896 -21.785730 -8.018294 36.574990 12.525354 -4.846252 -7.108603 0.557997 32.274235 -2.784786 19.584546 -32.351957 0.000000 0.000000 0.000000 0.427176 1.187479 13.026286 2.175314 1.339089 -2.335205 3.000639 1.711604 -7.622569 -5.752142 0.646027 2.026875 4.117020 -0.134451 3.939676 0.000000 0.000000 0.000000 1.739176 12.684803 11.332708 -68.966309 -3.395292 16.828495 -8.025434 -84.093706 0.053208 4.633804 -16.766065 0.013198 4.775056 -16.736544 0.000000 0.000000 0.000000 0.000000 0.000000 0.000000 0.000000 7.646931 -16.669402 1.427078 51.168292 10.751449 1.396320 20.133459 12.933094 0.031984 0.604757 4.323801 0.015935 0.603296 4.324357 0.000000 0.000000 0.000000 0.000000 0.000000 0.000000 0.000000 
0.043533 17.827718 1.023056 -2.666472 -7.863991 7.120363 -0.954159 20.102673 1.864967 -19.091889 -6.341630 -14.964495 -7.126766 -5.561209 -16.053909 -0.382609 7.693112 16.274600 0.000000 0.000000 0.000000 -2.202851 -21.243217 -7.477567 35.276928 12.636455 -5.461241 -6.041866 0.056703 32.215251 -2.673053 19.503003 -32.725763 0.000000 0.000000 0.000000 0.369763 0.997414 12.849921 1.835031 1.144235 -2.219979 3.022957 1.503445 -7.121795 -5.227408 0.562946 1.389740 3.936678 -0.143865 4.049755 0.000000 0.000000 0.000000 2.446922 12.548230 11.087086 -69.210310 -3.978908 15.842931 -6.386544 -84.980593 -0.021714 5.239321 -16.875246 -0.025739 5.398152 -16.837757 0.000000 0.000000 0.000000 0.000000 0.000000 0.000000 0.000000 6.382770 -16.513704 1.845041 52.564031 10.977703 1.922563 21.839324 15.847342 0.039920 0.635668 4.738937 0.019880 0.633803 4.739639 0.000000 0.000000 0.000000 0.000000 0.000000 0.000000 0.000000 
0.067379 17.864087 1.175589 -2.494204 -7.554470 7.321578 -0.834932 20.164881 1.549360 -19.590235 -6.544921 -14.987877 -7.117462 -4.993752 -14.250038 -0.473479 6.658685 14.229421 0.000000 0.000000 0.000000 -2.149670 -20.694223 -6.928557 33.946547 12.726638 -6.080493 -4.979044 -0.431191 32.106772 -2.557682 19.418702 -33.067721 0.000000 0.000000 0.000000 0.315763 0.802713 12.668871 1.532972 0.953822 -2.118833 3.042630 1.293958 -6.610937 -4.768165 0.488428 0.789509 3.776710 -0.152276 4.143806 0.000000 0.000000 0.000000 3.118971 12.408983 10.852376 -69.427643 -4.579734 14.784745 -4.757392 -85.820979 -0.099872 5.848305 -16.941021 -0.066325 6.024616 -16.894843 0.000000 0.000000 0.000000 0.000000 0.000000 0.000000 0.000000 5.216610 -16.328893 2.299799 53.772228 11.112417 2.590745 23.626905 19.254466 0.050576 0.675629 5.213334 0.025177 0.673276 5.214224 0.000000 0.000000 0.000000 0.000000 0.000000 0.000000 0.000000 
